<svg width="50" height="50" viewBox="0 0 50 50" fill="none" xmlns="http://www.w3.org/2000/svg">
<rect x="5" y="5" width="40" height="40" rx="11" fill="#4B71F7"/>
<path d="M17.6758 17.6758H11.8164V23.5352H17.6758C19.2909 23.5352 20.6055 22.2206 20.6055 20.6055C20.6055 18.9903 19.2909 17.6758 17.6758 17.6758Z" fill="#141414"/>
<path d="M17.6758 26.4648H11.8164V32.3242H17.6758C19.2909 32.3242 20.6055 31.0097 20.6055 29.3945C20.6055 27.7794 19.2909 26.4648 17.6758 26.4648Z" fill="#141414"/>
<path d="M33.7891 23.5352C31.8794 23.5352 30.2502 24.7597 29.6448 26.4648H37.9333C37.328 24.7597 35.6987 23.5352 33.7891 23.5352Z" fill="#141414"/>
<path d="M42.5781 0H7.32422C3.28598 0 0 3.28598 0 7.32422V42.6758C0 46.714 3.28598 50 7.32422 50H42.5781C46.6164 50 50 46.714 50 42.6758V7.32422C50 3.28598 46.6164 0 42.5781 0ZM27.9297 14.7461H39.6484V17.6758H27.9297V14.7461ZM23.5352 29.3945C23.5352 32.626 20.9072 35.2539 17.6758 35.2539H8.88672V14.7461H17.6758C20.9072 14.7461 23.5352 17.374 23.5352 20.6055C23.5352 22.364 22.7409 23.9254 21.5107 25C22.7409 26.0746 23.5352 27.636 23.5352 29.3945ZM41.1133 29.3945H29.6448C30.2498 31.0997 31.8794 32.3242 33.7891 32.3242C35.3527 32.3242 36.8118 31.4816 37.5969 30.1254L40.1318 31.5933C38.826 33.8505 36.3953 35.2539 33.7891 35.2539C29.7508 35.2539 26.4648 31.9679 26.4648 27.9297C26.4648 23.8914 29.7508 20.6055 33.7891 20.6055C37.8273 20.6055 41.1133 23.8914 41.1133 27.9297V29.3945Z" fill="#141414"/>
</svg>
