<svg width="100" height="100" viewBox="0 0 100 100" fill="none" xmlns="http://www.w3.org/2000/svg">
<path d="M98.9622 24.0528C98.3183 23.6713 97.5222 23.6564 96.8651 24.0147L73.9208 36.5429V29.0258C73.9142 23.178 69.1754 18.4392 63.3276 18.4326H10.5932C4.74543 18.4392 0.00662076 23.178 0 29.0258V70.8525C0.00662076 76.7003 4.74543 81.4391 10.5932 81.4457H63.3276C69.1754 81.4391 73.9142 76.7003 73.9208 70.8525V63.472L96.8659 76.0001C97.5222 76.3585 98.3192 76.3444 98.9622 75.9629C99.6061 75.5806 100 74.8879 100 74.1405V25.8744C100 25.1262 99.6052 24.4343 98.9622 24.0528ZM69.6819 70.8533C69.6786 74.3623 66.8349 77.2051 63.3259 77.2093H10.5932C7.08422 77.2051 4.24143 74.3623 4.23729 70.8533V29.0258C4.24143 25.5177 7.08422 22.674 10.5932 22.6699H63.3276C66.8358 22.674 69.6794 25.5177 69.6835 29.0258L69.6819 70.8533ZM95.7627 70.5703L73.9208 58.6446V41.3702L95.7627 29.4454V70.5703Z" fill="#121212"/>
</svg>
