<svg width="100" height="100" viewBox="0 0 100 100" fill="none" xmlns="http://www.w3.org/2000/svg">
<g clip-path="url(#clip0)">
<path d="M96.673 22.9088C94.6768 20.8176 91.9202 19.5818 88.7833 19.5818H73.0038V19.3917C73.0038 17.0153 72.0532 14.7339 70.4373 13.213C68.8213 11.5971 66.635 10.6465 64.2586 10.6465H35.7414C33.27 10.6465 31.0837 11.5971 29.4677 13.213C27.8517 14.829 26.9011 17.0153 26.9011 19.3917V19.5818H11.2167C8.07985 19.5818 5.32319 20.8176 3.327 22.9088C1.3308 24.905 0 27.7568 0 30.7986V78.137C0 81.2739 1.23574 84.0305 3.327 86.0267C5.32319 88.0229 8.1749 89.3537 11.2167 89.3537H88.7833C91.9202 89.3537 94.6768 88.118 96.673 86.0267C98.6692 84.0305 100 81.1788 100 78.137V30.7986C100 27.6617 98.7643 24.905 96.673 22.9088ZM95.057 78.137H94.962C94.962 79.848 94.2966 81.3689 93.1559 82.5096C92.0152 83.6503 90.4943 84.3157 88.7833 84.3157H11.2167C9.5057 84.3157 7.98479 83.6503 6.84411 82.5096C5.70342 81.3689 5.03802 79.848 5.03802 78.137V30.7986C5.03802 29.0875 5.70342 27.5666 6.84411 26.426C7.98479 25.2853 9.5057 24.6199 11.2167 24.6199H29.5627C30.9886 24.6199 32.1293 23.4792 32.1293 22.0533V19.2967C32.1293 18.251 32.5095 17.3005 33.1749 16.6351C33.8403 15.9697 34.7909 15.5894 35.8365 15.5894H64.2586C65.3042 15.5894 66.2548 15.9697 66.9202 16.6351C67.5856 17.3005 67.9658 18.251 67.9658 19.2967V22.0533C67.9658 23.4792 69.1065 24.6199 70.5323 24.6199H88.8783C90.5894 24.6199 92.1103 25.2853 93.2509 26.426C94.3916 27.5666 95.057 29.0875 95.057 30.7986V78.137Z" fill="#121212"/>
<path d="M49.9998 31.084C43.5359 31.084 37.6423 33.7456 33.4598 37.9281C29.1823 42.2057 26.6157 48.0041 26.6157 54.468C26.6157 60.9319 29.2773 66.8255 33.4598 71.008C37.7374 75.2855 43.5359 77.8521 49.9998 77.8521C56.4636 77.8521 62.3572 75.1905 66.5397 71.008C70.8173 66.7304 73.3838 60.9319 73.3838 54.468C73.3838 48.0041 70.7222 42.1106 66.5397 37.9281C62.3572 33.7456 56.4636 31.084 49.9998 31.084ZM62.9275 67.4909C59.6005 70.7228 55.0378 72.8141 49.9998 72.8141C44.9617 72.8141 40.399 70.7228 37.072 67.4909C33.745 64.1639 31.7488 59.6011 31.7488 54.5631C31.7488 49.5251 33.8401 44.9623 37.072 41.6353C40.399 38.3083 44.9617 36.3121 49.9998 36.3121C55.0378 36.3121 59.6005 38.4034 62.9275 41.6353C66.2545 44.9623 68.2507 49.5251 68.2507 54.5631C68.3458 59.6011 66.2545 64.1639 62.9275 67.4909Z" fill="#121212"/>
<path d="M83.8404 40.3058C86.4128 40.3058 88.4982 38.2205 88.4982 35.648C88.4982 33.0756 86.4128 30.9902 83.8404 30.9902C81.268 30.9902 79.1826 33.0756 79.1826 35.648C79.1826 38.2205 81.268 40.3058 83.8404 40.3058Z" fill="#121212"/>
</g>
<defs>
<clipPath id="clip0">
<rect width="100" height="100" fill="white"/>
</clipPath>
</defs>
</svg>
