<svg width="50" height="50" viewBox="0 0 50 50" fill="none" xmlns="http://www.w3.org/2000/svg">
<rect x="5" y="5" width="40" height="40" rx="11" fill="#4B71F7"/>
<path d="M19.2859 12.9746C15.5557 14.7206 12.8176 18.1333 11.9446 22.2603C12.3017 22.2603 17.8573 22.3397 24.2462 20.6333C21.9446 16.546 19.4843 13.2127 19.2859 12.9746Z" fill="#141414"/>
<path d="M25.357 22.6973C18.4919 24.7608 11.9046 24.602 11.6665 24.602C11.6665 24.7211 11.6665 24.8798 11.6665 25.0385C11.6665 28.4512 12.976 31.5862 15.0792 33.9274C15.0792 33.9274 18.73 27.4195 25.9125 25.1179C26.0713 25.0782 26.2697 24.9989 26.4284 24.9592C26.1109 24.2052 25.7141 23.4512 25.357 22.6973Z" fill="#141414"/>
<path d="M25.0002 11.668C23.9287 11.668 22.8573 11.787 21.8652 12.0251C22.0636 12.3029 24.5636 15.5965 26.8652 19.8029C31.8652 17.9378 33.77 15.041 33.8097 15.0013C31.4684 12.9378 28.3732 11.668 25.0002 11.668Z" fill="#141414"/>
<path d="M29.8413 26.5471C31.5873 31.3487 32.3016 35.2376 32.4207 36.0709C35.3969 34.0471 37.5397 30.8328 38.135 27.1423C37.8969 27.0233 34.1667 25.8328 29.8413 26.5471Z" fill="#141414"/>
<path d="M37.4603 0H12.5C5.63492 0 0 5.63492 0 12.5397V37.5C0 44.3651 5.63492 50 12.5 50H37.4603C44.3651 50 50 44.3651 50 37.4603V12.5397C50 5.63492 44.3651 0 37.4603 0ZM40.2778 28.1349C40.0794 29.127 39.7619 30.119 39.3651 31.0714C38.9683 31.9841 38.4921 32.8968 37.9365 33.7302C37.381 34.5635 36.746 35.3175 36.0317 36.0317C35.3175 36.746 34.5635 37.381 33.7302 37.9365C32.8968 38.4921 32.0238 38.9683 31.0714 39.3651C30.119 39.7619 29.127 40.0794 28.1349 40.2778C27.1032 40.4762 26.0714 40.5952 25 40.5952C23.9286 40.5952 22.8968 40.4762 21.8651 40.2778C20.873 40.0794 19.881 39.7619 18.9286 39.3651C18.0159 38.9683 17.1032 38.4921 16.2698 37.9365C15.4365 37.381 14.6825 36.746 13.9683 36.0317C13.254 35.3175 12.619 34.5635 12.0635 33.7302C11.5079 32.8968 11.0317 32.0238 10.6349 31.0714C10.2381 30.119 9.92064 29.127 9.72222 28.1349C9.52381 27.1032 9.40476 26.0317 9.40476 25C9.40476 23.9286 9.52381 22.8968 9.72222 21.8651C9.92064 20.873 10.2381 19.881 10.6349 18.9286C11.0317 18.0159 11.5079 17.1032 12.0635 16.2698C12.619 15.4365 13.254 14.6825 13.9683 13.9683C14.6825 13.254 15.4365 12.619 16.2698 12.0635C17.1032 11.5079 17.9762 11.0317 18.9286 10.6349C19.881 10.2381 20.873 9.92064 21.8651 9.72222C22.8968 9.52381 23.9683 9.40476 25 9.40476C26.0714 9.40476 27.1032 9.52381 28.1349 9.72222C29.127 9.92064 30.119 10.2381 31.0714 10.6349C31.9841 11.0317 32.8968 11.5079 33.7302 12.0635C34.5635 12.619 35.3175 13.254 36.0317 13.9683C36.746 14.6825 37.381 15.4365 37.9365 16.2698C38.4921 17.1032 38.9683 17.9762 39.3651 18.9286C39.7619 19.881 40.0794 20.873 40.2778 21.8651C40.4762 22.8968 40.5952 23.9286 40.5952 25C40.5952 26.0714 40.4762 27.1032 40.2778 28.1349Z" fill="#141414"/>
<path d="M27.3411 27.1426C27.3411 27.1426 27.3014 27.1823 27.2617 27.1823C19.4046 29.9204 16.8252 35.4362 16.8252 35.5156C19.0871 37.2616 21.9046 38.3331 24.9998 38.3331C26.8252 38.3331 28.6109 37.9362 30.1982 37.2616C29.9998 36.1108 29.2458 32.0235 27.3411 27.1426Z" fill="#141414"/>
<path d="M35.2778 16.5469C35.2778 16.5866 33.135 19.6818 27.8572 21.8247C28.1746 22.4596 28.4524 23.0945 28.7302 23.7691C28.8096 24.0072 28.9286 24.2453 29.008 24.4437C33.5715 23.8485 38.0953 24.8405 38.2937 24.8802C38.254 21.7056 37.1429 18.8088 35.2778 16.5469Z" fill="#141414"/>
</svg>
