<svg width="100" height="100" viewBox="0 0 100 100" fill="none" xmlns="http://www.w3.org/2000/svg">
<g clip-path="url(#clip0)">
<path d="M90.6667 15.001H7.33333C2.73333 15.0064 -0.994583 18.7343 -1 23.3343V76.6676C-0.994583 81.2676 2.73333 84.9956 7.33333 85.001H90.6667C91.1344 85.0029 91.6013 84.962 92.0617 84.8793C96.0719 84.2081 99.0077 80.7337 99 76.6676V23.3343C98.9946 18.7341 95.2667 15.0064 90.6667 15.001ZM7.33333 81.6676C4.74271 81.6672 2.58125 79.6883 2.35333 77.1076L35.5833 55.381L69.3767 81.6676H7.33333ZM95.6667 76.6676C95.6694 79.1139 93.8975 81.2012 91.4833 81.596C91.2138 81.6445 90.9404 81.6685 90.6667 81.6676H74.805L52.7233 64.4826L72.47 48.6926L95.6667 62.611V76.6676ZM95.6667 58.7243L73.1917 45.2393C72.5942 44.8799 71.8363 44.9306 71.2917 45.366L50.0133 62.3826L36.6883 52.0193C36.1269 51.5831 35.3506 51.5508 34.755 51.9393L2.33333 73.1376V23.3343C2.33333 20.5729 4.57188 18.3343 7.33333 18.3343H90.6667C93.4281 18.3343 95.6667 20.5729 95.6667 23.3343V58.7243Z" fill="#121212"/>
<path d="M50 25.001C44.4771 25.001 40 29.4781 40 35.001C40.0054 40.5216 44.4794 44.9956 50 45.001C55.5229 45.001 60 40.5239 60 35.001C60 29.4781 55.5229 25.001 50 25.001ZM50 41.6676C46.3181 41.6676 43.3333 38.6829 43.3333 35.001C43.3333 31.3191 46.3181 28.3343 50 28.3343C53.6819 28.3343 56.6667 31.3191 56.6667 35.001C56.6667 38.6829 53.6819 41.6676 50 41.6676Z" fill="#121212"/>
</g>
<defs>
<clipPath id="clip0">
<rect width="100" height="100" fill="white" transform="translate(0 0.000976562)"/>
</clipPath>
</defs>
</svg>
